<svg width="27" height="27" viewBox="0 0 27 27" fill="none" xmlns="http://www.w3.org/2000/svg">
<g clip-path="url(#clip0_10_2)">
<path d="M18.5064 22.5887C20.6938 22.1544 22.5633 21.4191 23.8786 20.4755C25.194 19.532 25.8961 18.4227 25.8961 17.2879C25.8961 15.7661 24.6349 14.3068 22.3899 13.2308M5.46073 13.2308C4.3545 13.761 3.47031 14.3927 2.86581 15.0922C1.95978 16.1406 1.72271 17.2942 2.18461 18.4072C2.6465 19.5202 3.7866 20.5425 5.46074 21.345C7.13488 22.1473 9.26786 22.6939 11.59 22.9153C12.3628 22.9889 13.145 23.0254 13.9253 23.0254H15.0455" stroke="black" stroke-width="1.63434" stroke-linecap="round" stroke-linejoin="round"/>
<path d="M12.6745 20.5238L15.1761 23.0254L12.6745 25.5271" stroke="black" stroke-width="1.63434" stroke-linecap="round" stroke-linejoin="round"/>
<path d="M4.88309 6.28421C4.88309 3.77874 6.79627 1.68795 9.2919 1.46612L10.7559 1.33599C12.8647 1.14854 14.986 1.14854 17.0947 1.33599L18.5565 1.46592C21.0534 1.68788 22.9675 3.7797 22.9675 6.28644V6.8094C22.9675 8.6403 21.7644 10.2536 20.0096 10.7758C18.4893 11.2281 16.8432 10.8651 15.6543 9.81508L14.8023 9.0626C14.3017 8.62048 13.5498 8.62157 13.0506 9.06514L12.2206 9.80246C11.0301 10.86 9.37795 11.2279 7.85125 10.7754C6.09074 10.2535 4.88309 8.63595 4.88309 6.79973V6.28421Z" stroke="black" stroke-width="1.63434"/>
<path d="M18.2 4.40647L16.851 4.28656C14.905 4.11359 12.9476 4.11359 11.0017 4.28656L9.65073 4.40664" stroke="black" stroke-width="1.63434" stroke-linecap="round"/>
</g>
<defs>
<clipPath id="clip0_10_2">
<rect width="26.1494" height="26.1494" fill="white" transform="translate(0.850586 0.215942)"/>
</clipPath>
</defs>
</svg>
