<svg width="58" height="58" viewBox="0 0 58 58" fill="none" xmlns="http://www.w3.org/2000/svg">
<path d="M12.4204 29.0001C12.4204 30.1835 13.2578 31.021 14.4594 31.021L36.9437 31.021L40.8762 30.8753L35.6147 35.5906L31.5002 39.7416C31.1361 40.1057 30.8994 40.6155 30.8994 41.1799C30.8994 42.2904 31.7369 43.1279 32.8838 43.1279C33.4118 43.1279 33.9034 42.9276 34.3403 42.4907L46.3562 30.493C46.7749 30.0925 46.9934 29.5463 46.9934 29.0001C46.9934 28.4357 46.7749 27.8895 46.3562 27.489L34.3403 15.5095C33.9034 15.0726 33.4118 14.8723 32.8838 14.8723C31.7369 14.8723 30.8994 15.6916 30.8994 16.8021C30.8994 17.3847 31.1361 17.8945 31.5002 18.2586L35.6147 22.3914L40.8944 27.1249L36.9437 26.961L14.4594 26.961C13.2579 26.961 12.4204 27.7985 12.4204 29.0001Z" fill="white"/>
</svg>
