<svg width="48" height="43" viewBox="0 0 48 43" fill="none" xmlns="http://www.w3.org/2000/svg">
<g clip-path="url(#clip0_4_51)">
<path d="M36.9546 32.5527L37.3932 32.3932L37.5527 31.9546L39.3046 27.1369C39.327 27.0753 39.3557 27.0487 39.3788 27.0334C39.4075 27.0145 39.4496 27 39.5 27C39.5504 27 39.5925 27.0145 39.6212 27.0334C39.6443 27.0487 39.673 27.0753 39.6954 27.1369L41.4473 31.9546L41.6068 32.3932L42.0454 32.5527L46.8631 34.3046L46.8631 34.3046C46.9247 34.327 46.9514 34.3557 46.9666 34.3788C46.9855 34.4075 47 34.4496 47 34.5C47 34.5504 46.9855 34.5925 46.9666 34.6212C46.9514 34.6443 46.9247 34.673 46.8631 34.6954L46.8631 34.6954L42.0454 36.4473L41.6068 36.6068L41.4473 37.0454L39.6954 41.8632C39.6954 41.8632 39.6954 41.8632 39.6954 41.8632C39.673 41.9247 39.6443 41.9513 39.6212 41.9666C39.5926 41.9855 39.5504 42 39.5 42C39.4496 42 39.4074 41.9855 39.3788 41.9666C39.3557 41.9513 39.327 41.9247 39.3046 41.8632L37.5527 37.0454L37.3932 36.6068L36.9546 36.4473L32.1369 34.6954C32.0753 34.673 32.0487 34.6443 32.0334 34.6212C32.0145 34.5925 32 34.5504 32 34.5C32 34.4496 32.0145 34.4075 32.0334 34.3788C32.0487 34.3557 32.0753 34.327 32.1369 34.3046L31.7951 33.3648L32.1369 34.3046L36.9546 32.5527Z" stroke="black" stroke-width="2"/>
</g>
<g clip-path="url(#clip1_4_51)">
<path d="M13.657 13.6569L13.2184 13.8164L2.16583 17.8355C0.611392 18.4008 0.611383 20.5992 2.16584 21.1645L13.2184 25.1836L13.657 25.3431L13.8164 25.7816L17.8355 36.8343M13.657 13.6569L17.8355 36.8343M13.657 13.6569L13.8164 13.2184L17.8355 2.16584C18.4008 0.611383 20.5992 0.611391 21.1645 2.16584L22.1043 1.8241L21.1645 2.16584L25.1836 13.2184L25.343 13.6569L25.7816 13.8164L36.8341 17.8355L37.1248 17.0362L36.8341 17.8355C38.3887 18.4008 38.3887 20.5992 36.8341 21.1645L37.1759 22.1043L36.8341 21.1645L25.7816 25.1836L25.343 25.3431L25.1836 25.7816L21.1645 36.8342C20.5992 38.3885 18.4008 38.3885 17.8355 36.8343M13.657 13.6569L16.8957 37.176L17.8355 36.8343" stroke="black" stroke-width="2"/>
</g>
<defs>
<clipPath id="clip0_4_51">
<rect width="17" height="17" fill="white" transform="translate(31 26)"/>
</clipPath>
<clipPath id="clip1_4_51">
<rect width="39" height="39" fill="white"/>
</clipPath>
</defs>
</svg>
