<svg width="82" height="82" viewBox="0 0 82 82" fill="none" xmlns="http://www.w3.org/2000/svg">
<g clip-path="url(#clip0_1_36)">
<path fill-rule="evenodd" clip-rule="evenodd" d="M29.5717 1.61388C13.6174 6.2351 1.66995 20.2876 0.161198 37.3393H18.9052C20.0083 24.7538 23.6576 12.5883 29.5717 1.61388ZM18.9052 44.6607H0.161198C1.66995 61.7126 13.6174 75.7651 29.5717 80.3864C23.6576 69.4118 20.0083 57.2462 18.9052 44.6607ZM38.9629 81.9502C31.899 70.7865 27.5267 57.9964 26.2572 44.6607H55.7426C54.4732 57.9964 50.1008 70.7865 43.0369 81.9502C42.3621 81.983 41.683 82 41 82C40.3169 82 39.6378 81.983 38.9629 81.9502ZM52.4281 80.3864C68.3827 75.7651 80.3301 61.7126 81.8389 44.6607H63.0943C61.9914 57.2463 58.3422 69.4118 52.4281 80.3864ZM63.0943 37.3393H81.8389C80.3301 20.2875 68.3827 6.23499 52.4281 1.61384C58.3422 12.5882 61.9914 24.7538 63.0943 37.3393ZM38.9629 0.0497244C39.6378 0.0167035 40.317 0 41 0C41.683 0 42.3621 0.0167005 43.0369 0.0497154C50.1008 11.2133 54.4732 24.0036 55.7426 37.3393H26.2572C27.5267 24.0036 31.899 11.2133 38.9629 0.0497244Z" fill="black"/>
</g>
<defs>
<clipPath id="clip0_1_36">
<rect width="82" height="82" fill="white"/>
</clipPath>
</defs>
</svg>
